# High-Resolution Cube Collision Mesh
# Cube size: 0.05x0.05x0.05, Subdivision: 0.005
# Generated with 726 vertices and 1200 faces

v -0.025000 -0.025000 -0.025000
v -0.025000 -0.020000 -0.025000
v -0.025000 -0.015000 -0.025000
v -0.025000 -0.010000 -0.025000
v -0.025000 -0.005000 -0.025000
v -0.025000 0.000000 -0.025000
v -0.025000 0.005000 -0.025000
v -0.025000 0.010000 -0.025000
v -0.025000 0.015000 -0.025000
v -0.025000 0.020000 -0.025000
v -0.025000 0.025000 -0.025000
v -0.020000 -0.025000 -0.025000
v -0.020000 -0.020000 -0.025000
v -0.020000 -0.015000 -0.025000
v -0.020000 -0.010000 -0.025000
v -0.020000 -0.005000 -0.025000
v -0.020000 0.000000 -0.025000
v -0.020000 0.005000 -0.025000
v -0.020000 0.010000 -0.025000
v -0.020000 0.015000 -0.025000
v -0.020000 0.020000 -0.025000
v -0.020000 0.025000 -0.025000
v -0.015000 -0.025000 -0.025000
v -0.015000 -0.020000 -0.025000
v -0.015000 -0.015000 -0.025000
v -0.015000 -0.010000 -0.025000
v -0.015000 -0.005000 -0.025000
v -0.015000 0.000000 -0.025000
v -0.015000 0.005000 -0.025000
v -0.015000 0.010000 -0.025000
v -0.015000 0.015000 -0.025000
v -0.015000 0.020000 -0.025000
v -0.015000 0.025000 -0.025000
v -0.010000 -0.025000 -0.025000
v -0.010000 -0.020000 -0.025000
v -0.010000 -0.015000 -0.025000
v -0.010000 -0.010000 -0.025000
v -0.010000 -0.005000 -0.025000
v -0.010000 0.000000 -0.025000
v -0.010000 0.005000 -0.025000
v -0.010000 0.010000 -0.025000
v -0.010000 0.015000 -0.025000
v -0.010000 0.020000 -0.025000
v -0.010000 0.025000 -0.025000
v -0.005000 -0.025000 -0.025000
v -0.005000 -0.020000 -0.025000
v -0.005000 -0.015000 -0.025000
v -0.005000 -0.010000 -0.025000
v -0.005000 -0.005000 -0.025000
v -0.005000 0.000000 -0.025000
v -0.005000 0.005000 -0.025000
v -0.005000 0.010000 -0.025000
v -0.005000 0.015000 -0.025000
v -0.005000 0.020000 -0.025000
v -0.005000 0.025000 -0.025000
v 0.000000 -0.025000 -0.025000
v 0.000000 -0.020000 -0.025000
v 0.000000 -0.015000 -0.025000
v 0.000000 -0.010000 -0.025000
v 0.000000 -0.005000 -0.025000
v 0.000000 0.000000 -0.025000
v 0.000000 0.005000 -0.025000
v 0.000000 0.010000 -0.025000
v 0.000000 0.015000 -0.025000
v 0.000000 0.020000 -0.025000
v 0.000000 0.025000 -0.025000
v 0.005000 -0.025000 -0.025000
v 0.005000 -0.020000 -0.025000
v 0.005000 -0.015000 -0.025000
v 0.005000 -0.010000 -0.025000
v 0.005000 -0.005000 -0.025000
v 0.005000 0.000000 -0.025000
v 0.005000 0.005000 -0.025000
v 0.005000 0.010000 -0.025000
v 0.005000 0.015000 -0.025000
v 0.005000 0.020000 -0.025000
v 0.005000 0.025000 -0.025000
v 0.010000 -0.025000 -0.025000
v 0.010000 -0.020000 -0.025000
v 0.010000 -0.015000 -0.025000
v 0.010000 -0.010000 -0.025000
v 0.010000 -0.005000 -0.025000
v 0.010000 0.000000 -0.025000
v 0.010000 0.005000 -0.025000
v 0.010000 0.010000 -0.025000
v 0.010000 0.015000 -0.025000
v 0.010000 0.020000 -0.025000
v 0.010000 0.025000 -0.025000
v 0.015000 -0.025000 -0.025000
v 0.015000 -0.020000 -0.025000
v 0.015000 -0.015000 -0.025000
v 0.015000 -0.010000 -0.025000
v 0.015000 -0.005000 -0.025000
v 0.015000 0.000000 -0.025000
v 0.015000 0.005000 -0.025000
v 0.015000 0.010000 -0.025000
v 0.015000 0.015000 -0.025000
v 0.015000 0.020000 -0.025000
v 0.015000 0.025000 -0.025000
v 0.020000 -0.025000 -0.025000
v 0.020000 -0.020000 -0.025000
v 0.020000 -0.015000 -0.025000
v 0.020000 -0.010000 -0.025000
v 0.020000 -0.005000 -0.025000
v 0.020000 0.000000 -0.025000
v 0.020000 0.005000 -0.025000
v 0.020000 0.010000 -0.025000
v 0.020000 0.015000 -0.025000
v 0.020000 0.020000 -0.025000
v 0.020000 0.025000 -0.025000
v 0.025000 -0.025000 -0.025000
v 0.025000 -0.020000 -0.025000
v 0.025000 -0.015000 -0.025000
v 0.025000 -0.010000 -0.025000
v 0.025000 -0.005000 -0.025000
v 0.025000 0.000000 -0.025000
v 0.025000 0.005000 -0.025000
v 0.025000 0.010000 -0.025000
v 0.025000 0.015000 -0.025000
v 0.025000 0.020000 -0.025000
v 0.025000 0.025000 -0.025000
v -0.025000 -0.025000 0.025000
v -0.025000 -0.020000 0.025000
v -0.025000 -0.015000 0.025000
v -0.025000 -0.010000 0.025000
v -0.025000 -0.005000 0.025000
v -0.025000 0.000000 0.025000
v -0.025000 0.005000 0.025000
v -0.025000 0.010000 0.025000
v -0.025000 0.015000 0.025000
v -0.025000 0.020000 0.025000
v -0.025000 0.025000 0.025000
v -0.020000 -0.025000 0.025000
v -0.020000 -0.020000 0.025000
v -0.020000 -0.015000 0.025000
v -0.020000 -0.010000 0.025000
v -0.020000 -0.005000 0.025000
v -0.020000 0.000000 0.025000
v -0.020000 0.005000 0.025000
v -0.020000 0.010000 0.025000
v -0.020000 0.015000 0.025000
v -0.020000 0.020000 0.025000
v -0.020000 0.025000 0.025000
v -0.015000 -0.025000 0.025000
v -0.015000 -0.020000 0.025000
v -0.015000 -0.015000 0.025000
v -0.015000 -0.010000 0.025000
v -0.015000 -0.005000 0.025000
v -0.015000 0.000000 0.025000
v -0.015000 0.005000 0.025000
v -0.015000 0.010000 0.025000
v -0.015000 0.015000 0.025000
v -0.015000 0.020000 0.025000
v -0.015000 0.025000 0.025000
v -0.010000 -0.025000 0.025000
v -0.010000 -0.020000 0.025000
v -0.010000 -0.015000 0.025000
v -0.010000 -0.010000 0.025000
v -0.010000 -0.005000 0.025000
v -0.010000 0.000000 0.025000
v -0.010000 0.005000 0.025000
v -0.010000 0.010000 0.025000
v -0.010000 0.015000 0.025000
v -0.010000 0.020000 0.025000
v -0.010000 0.025000 0.025000
v -0.005000 -0.025000 0.025000
v -0.005000 -0.020000 0.025000
v -0.005000 -0.015000 0.025000
v -0.005000 -0.010000 0.025000
v -0.005000 -0.005000 0.025000
v -0.005000 0.000000 0.025000
v -0.005000 0.005000 0.025000
v -0.005000 0.010000 0.025000
v -0.005000 0.015000 0.025000
v -0.005000 0.020000 0.025000
v -0.005000 0.025000 0.025000
v 0.000000 -0.025000 0.025000
v 0.000000 -0.020000 0.025000
v 0.000000 -0.015000 0.025000
v 0.000000 -0.010000 0.025000
v 0.000000 -0.005000 0.025000
v 0.000000 0.000000 0.025000
v 0.000000 0.005000 0.025000
v 0.000000 0.010000 0.025000
v 0.000000 0.015000 0.025000
v 0.000000 0.020000 0.025000
v 0.000000 0.025000 0.025000
v 0.005000 -0.025000 0.025000
v 0.005000 -0.020000 0.025000
v 0.005000 -0.015000 0.025000
v 0.005000 -0.010000 0.025000
v 0.005000 -0.005000 0.025000
v 0.005000 0.000000 0.025000
v 0.005000 0.005000 0.025000
v 0.005000 0.010000 0.025000
v 0.005000 0.015000 0.025000
v 0.005000 0.020000 0.025000
v 0.005000 0.025000 0.025000
v 0.010000 -0.025000 0.025000
v 0.010000 -0.020000 0.025000
v 0.010000 -0.015000 0.025000
v 0.010000 -0.010000 0.025000
v 0.010000 -0.005000 0.025000
v 0.010000 0.000000 0.025000
v 0.010000 0.005000 0.025000
v 0.010000 0.010000 0.025000
v 0.010000 0.015000 0.025000
v 0.010000 0.020000 0.025000
v 0.010000 0.025000 0.025000
v 0.015000 -0.025000 0.025000
v 0.015000 -0.020000 0.025000
v 0.015000 -0.015000 0.025000
v 0.015000 -0.010000 0.025000
v 0.015000 -0.005000 0.025000
v 0.015000 0.000000 0.025000
v 0.015000 0.005000 0.025000
v 0.015000 0.010000 0.025000
v 0.015000 0.015000 0.025000
v 0.015000 0.020000 0.025000
v 0.015000 0.025000 0.025000
v 0.020000 -0.025000 0.025000
v 0.020000 -0.020000 0.025000
v 0.020000 -0.015000 0.025000
v 0.020000 -0.010000 0.025000
v 0.020000 -0.005000 0.025000
v 0.020000 0.000000 0.025000
v 0.020000 0.005000 0.025000
v 0.020000 0.010000 0.025000
v 0.020000 0.015000 0.025000
v 0.020000 0.020000 0.025000
v 0.020000 0.025000 0.025000
v 0.025000 -0.025000 0.025000
v 0.025000 -0.020000 0.025000
v 0.025000 -0.015000 0.025000
v 0.025000 -0.010000 0.025000
v 0.025000 -0.005000 0.025000
v 0.025000 0.000000 0.025000
v 0.025000 0.005000 0.025000
v 0.025000 0.010000 0.025000
v 0.025000 0.015000 0.025000
v 0.025000 0.020000 0.025000
v 0.025000 0.025000 0.025000
v -0.025000 -0.025000 -0.025000
v -0.025000 -0.025000 -0.020000
v -0.025000 -0.025000 -0.015000
v -0.025000 -0.025000 -0.010000
v -0.025000 -0.025000 -0.005000
v -0.025000 -0.025000 0.000000
v -0.025000 -0.025000 0.005000
v -0.025000 -0.025000 0.010000
v -0.025000 -0.025000 0.015000
v -0.025000 -0.025000 0.020000
v -0.025000 -0.025000 0.025000
v -0.020000 -0.025000 -0.025000
v -0.020000 -0.025000 -0.020000
v -0.020000 -0.025000 -0.015000
v -0.020000 -0.025000 -0.010000
v -0.020000 -0.025000 -0.005000
v -0.020000 -0.025000 0.000000
v -0.020000 -0.025000 0.005000
v -0.020000 -0.025000 0.010000
v -0.020000 -0.025000 0.015000
v -0.020000 -0.025000 0.020000
v -0.020000 -0.025000 0.025000
v -0.015000 -0.025000 -0.025000
v -0.015000 -0.025000 -0.020000
v -0.015000 -0.025000 -0.015000
v -0.015000 -0.025000 -0.010000
v -0.015000 -0.025000 -0.005000
v -0.015000 -0.025000 0.000000
v -0.015000 -0.025000 0.005000
v -0.015000 -0.025000 0.010000
v -0.015000 -0.025000 0.015000
v -0.015000 -0.025000 0.020000
v -0.015000 -0.025000 0.025000
v -0.010000 -0.025000 -0.025000
v -0.010000 -0.025000 -0.020000
v -0.010000 -0.025000 -0.015000
v -0.010000 -0.025000 -0.010000
v -0.010000 -0.025000 -0.005000
v -0.010000 -0.025000 0.000000
v -0.010000 -0.025000 0.005000
v -0.010000 -0.025000 0.010000
v -0.010000 -0.025000 0.015000
v -0.010000 -0.025000 0.020000
v -0.010000 -0.025000 0.025000
v -0.005000 -0.025000 -0.025000
v -0.005000 -0.025000 -0.020000
v -0.005000 -0.025000 -0.015000
v -0.005000 -0.025000 -0.010000
v -0.005000 -0.025000 -0.005000
v -0.005000 -0.025000 0.000000
v -0.005000 -0.025000 0.005000
v -0.005000 -0.025000 0.010000
v -0.005000 -0.025000 0.015000
v -0.005000 -0.025000 0.020000
v -0.005000 -0.025000 0.025000
v 0.000000 -0.025000 -0.025000
v 0.000000 -0.025000 -0.020000
v 0.000000 -0.025000 -0.015000
v 0.000000 -0.025000 -0.010000
v 0.000000 -0.025000 -0.005000
v 0.000000 -0.025000 0.000000
v 0.000000 -0.025000 0.005000
v 0.000000 -0.025000 0.010000
v 0.000000 -0.025000 0.015000
v 0.000000 -0.025000 0.020000
v 0.000000 -0.025000 0.025000
v 0.005000 -0.025000 -0.025000
v 0.005000 -0.025000 -0.020000
v 0.005000 -0.025000 -0.015000
v 0.005000 -0.025000 -0.010000
v 0.005000 -0.025000 -0.005000
v 0.005000 -0.025000 0.000000
v 0.005000 -0.025000 0.005000
v 0.005000 -0.025000 0.010000
v 0.005000 -0.025000 0.015000
v 0.005000 -0.025000 0.020000
v 0.005000 -0.025000 0.025000
v 0.010000 -0.025000 -0.025000
v 0.010000 -0.025000 -0.020000
v 0.010000 -0.025000 -0.015000
v 0.010000 -0.025000 -0.010000
v 0.010000 -0.025000 -0.005000
v 0.010000 -0.025000 0.000000
v 0.010000 -0.025000 0.005000
v 0.010000 -0.025000 0.010000
v 0.010000 -0.025000 0.015000
v 0.010000 -0.025000 0.020000
v 0.010000 -0.025000 0.025000
v 0.015000 -0.025000 -0.025000
v 0.015000 -0.025000 -0.020000
v 0.015000 -0.025000 -0.015000
v 0.015000 -0.025000 -0.010000
v 0.015000 -0.025000 -0.005000
v 0.015000 -0.025000 0.000000
v 0.015000 -0.025000 0.005000
v 0.015000 -0.025000 0.010000
v 0.015000 -0.025000 0.015000
v 0.015000 -0.025000 0.020000
v 0.015000 -0.025000 0.025000
v 0.020000 -0.025000 -0.025000
v 0.020000 -0.025000 -0.020000
v 0.020000 -0.025000 -0.015000
v 0.020000 -0.025000 -0.010000
v 0.020000 -0.025000 -0.005000
v 0.020000 -0.025000 0.000000
v 0.020000 -0.025000 0.005000
v 0.020000 -0.025000 0.010000
v 0.020000 -0.025000 0.015000
v 0.020000 -0.025000 0.020000
v 0.020000 -0.025000 0.025000
v 0.025000 -0.025000 -0.025000
v 0.025000 -0.025000 -0.020000
v 0.025000 -0.025000 -0.015000
v 0.025000 -0.025000 -0.010000
v 0.025000 -0.025000 -0.005000
v 0.025000 -0.025000 0.000000
v 0.025000 -0.025000 0.005000
v 0.025000 -0.025000 0.010000
v 0.025000 -0.025000 0.015000
v 0.025000 -0.025000 0.020000
v 0.025000 -0.025000 0.025000
v -0.025000 0.025000 -0.025000
v -0.025000 0.025000 -0.020000
v -0.025000 0.025000 -0.015000
v -0.025000 0.025000 -0.010000
v -0.025000 0.025000 -0.005000
v -0.025000 0.025000 0.000000
v -0.025000 0.025000 0.005000
v -0.025000 0.025000 0.010000
v -0.025000 0.025000 0.015000
v -0.025000 0.025000 0.020000
v -0.025000 0.025000 0.025000
v -0.020000 0.025000 -0.025000
v -0.020000 0.025000 -0.020000
v -0.020000 0.025000 -0.015000
v -0.020000 0.025000 -0.010000
v -0.020000 0.025000 -0.005000
v -0.020000 0.025000 0.000000
v -0.020000 0.025000 0.005000
v -0.020000 0.025000 0.010000
v -0.020000 0.025000 0.015000
v -0.020000 0.025000 0.020000
v -0.020000 0.025000 0.025000
v -0.015000 0.025000 -0.025000
v -0.015000 0.025000 -0.020000
v -0.015000 0.025000 -0.015000
v -0.015000 0.025000 -0.010000
v -0.015000 0.025000 -0.005000
v -0.015000 0.025000 0.000000
v -0.015000 0.025000 0.005000
v -0.015000 0.025000 0.010000
v -0.015000 0.025000 0.015000
v -0.015000 0.025000 0.020000
v -0.015000 0.025000 0.025000
v -0.010000 0.025000 -0.025000
v -0.010000 0.025000 -0.020000
v -0.010000 0.025000 -0.015000
v -0.010000 0.025000 -0.010000
v -0.010000 0.025000 -0.005000
v -0.010000 0.025000 0.000000
v -0.010000 0.025000 0.005000
v -0.010000 0.025000 0.010000
v -0.010000 0.025000 0.015000
v -0.010000 0.025000 0.020000
v -0.010000 0.025000 0.025000
v -0.005000 0.025000 -0.025000
v -0.005000 0.025000 -0.020000
v -0.005000 0.025000 -0.015000
v -0.005000 0.025000 -0.010000
v -0.005000 0.025000 -0.005000
v -0.005000 0.025000 0.000000
v -0.005000 0.025000 0.005000
v -0.005000 0.025000 0.010000
v -0.005000 0.025000 0.015000
v -0.005000 0.025000 0.020000
v -0.005000 0.025000 0.025000
v 0.000000 0.025000 -0.025000
v 0.000000 0.025000 -0.020000
v 0.000000 0.025000 -0.015000
v 0.000000 0.025000 -0.010000
v 0.000000 0.025000 -0.005000
v 0.000000 0.025000 0.000000
v 0.000000 0.025000 0.005000
v 0.000000 0.025000 0.010000
v 0.000000 0.025000 0.015000
v 0.000000 0.025000 0.020000
v 0.000000 0.025000 0.025000
v 0.005000 0.025000 -0.025000
v 0.005000 0.025000 -0.020000
v 0.005000 0.025000 -0.015000
v 0.005000 0.025000 -0.010000
v 0.005000 0.025000 -0.005000
v 0.005000 0.025000 0.000000
v 0.005000 0.025000 0.005000
v 0.005000 0.025000 0.010000
v 0.005000 0.025000 0.015000
v 0.005000 0.025000 0.020000
v 0.005000 0.025000 0.025000
v 0.010000 0.025000 -0.025000
v 0.010000 0.025000 -0.020000
v 0.010000 0.025000 -0.015000
v 0.010000 0.025000 -0.010000
v 0.010000 0.025000 -0.005000
v 0.010000 0.025000 0.000000
v 0.010000 0.025000 0.005000
v 0.010000 0.025000 0.010000
v 0.010000 0.025000 0.015000
v 0.010000 0.025000 0.020000
v 0.010000 0.025000 0.025000
v 0.015000 0.025000 -0.025000
v 0.015000 0.025000 -0.020000
v 0.015000 0.025000 -0.015000
v 0.015000 0.025000 -0.010000
v 0.015000 0.025000 -0.005000
v 0.015000 0.025000 0.000000
v 0.015000 0.025000 0.005000
v 0.015000 0.025000 0.010000
v 0.015000 0.025000 0.015000
v 0.015000 0.025000 0.020000
v 0.015000 0.025000 0.025000
v 0.020000 0.025000 -0.025000
v 0.020000 0.025000 -0.020000
v 0.020000 0.025000 -0.015000
v 0.020000 0.025000 -0.010000
v 0.020000 0.025000 -0.005000
v 0.020000 0.025000 0.000000
v 0.020000 0.025000 0.005000
v 0.020000 0.025000 0.010000
v 0.020000 0.025000 0.015000
v 0.020000 0.025000 0.020000
v 0.020000 0.025000 0.025000
v 0.025000 0.025000 -0.025000
v 0.025000 0.025000 -0.020000
v 0.025000 0.025000 -0.015000
v 0.025000 0.025000 -0.010000
v 0.025000 0.025000 -0.005000
v 0.025000 0.025000 0.000000
v 0.025000 0.025000 0.005000
v 0.025000 0.025000 0.010000
v 0.025000 0.025000 0.015000
v 0.025000 0.025000 0.020000
v 0.025000 0.025000 0.025000
v -0.025000 -0.025000 -0.025000
v -0.025000 -0.025000 -0.020000
v -0.025000 -0.025000 -0.015000
v -0.025000 -0.025000 -0.010000
v -0.025000 -0.025000 -0.005000
v -0.025000 -0.025000 0.000000
v -0.025000 -0.025000 0.005000
v -0.025000 -0.025000 0.010000
v -0.025000 -0.025000 0.015000
v -0.025000 -0.025000 0.020000
v -0.025000 -0.025000 0.025000
v -0.025000 -0.020000 -0.025000
v -0.025000 -0.020000 -0.020000
v -0.025000 -0.020000 -0.015000
v -0.025000 -0.020000 -0.010000
v -0.025000 -0.020000 -0.005000
v -0.025000 -0.020000 0.000000
v -0.025000 -0.020000 0.005000
v -0.025000 -0.020000 0.010000
v -0.025000 -0.020000 0.015000
v -0.025000 -0.020000 0.020000
v -0.025000 -0.020000 0.025000
v -0.025000 -0.015000 -0.025000
v -0.025000 -0.015000 -0.020000
v -0.025000 -0.015000 -0.015000
v -0.025000 -0.015000 -0.010000
v -0.025000 -0.015000 -0.005000
v -0.025000 -0.015000 0.000000
v -0.025000 -0.015000 0.005000
v -0.025000 -0.015000 0.010000
v -0.025000 -0.015000 0.015000
v -0.025000 -0.015000 0.020000
v -0.025000 -0.015000 0.025000
v -0.025000 -0.010000 -0.025000
v -0.025000 -0.010000 -0.020000
v -0.025000 -0.010000 -0.015000
v -0.025000 -0.010000 -0.010000
v -0.025000 -0.010000 -0.005000
v -0.025000 -0.010000 0.000000
v -0.025000 -0.010000 0.005000
v -0.025000 -0.010000 0.010000
v -0.025000 -0.010000 0.015000
v -0.025000 -0.010000 0.020000
v -0.025000 -0.010000 0.025000
v -0.025000 -0.005000 -0.025000
v -0.025000 -0.005000 -0.020000
v -0.025000 -0.005000 -0.015000
v -0.025000 -0.005000 -0.010000
v -0.025000 -0.005000 -0.005000
v -0.025000 -0.005000 0.000000
v -0.025000 -0.005000 0.005000
v -0.025000 -0.005000 0.010000
v -0.025000 -0.005000 0.015000
v -0.025000 -0.005000 0.020000
v -0.025000 -0.005000 0.025000
v -0.025000 0.000000 -0.025000
v -0.025000 0.000000 -0.020000
v -0.025000 0.000000 -0.015000
v -0.025000 0.000000 -0.010000
v -0.025000 0.000000 -0.005000
v -0.025000 0.000000 0.000000
v -0.025000 0.000000 0.005000
v -0.025000 0.000000 0.010000
v -0.025000 0.000000 0.015000
v -0.025000 0.000000 0.020000
v -0.025000 0.000000 0.025000
v -0.025000 0.005000 -0.025000
v -0.025000 0.005000 -0.020000
v -0.025000 0.005000 -0.015000
v -0.025000 0.005000 -0.010000
v -0.025000 0.005000 -0.005000
v -0.025000 0.005000 0.000000
v -0.025000 0.005000 0.005000
v -0.025000 0.005000 0.010000
v -0.025000 0.005000 0.015000
v -0.025000 0.005000 0.020000
v -0.025000 0.005000 0.025000
v -0.025000 0.010000 -0.025000
v -0.025000 0.010000 -0.020000
v -0.025000 0.010000 -0.015000
v -0.025000 0.010000 -0.010000
v -0.025000 0.010000 -0.005000
v -0.025000 0.010000 0.000000
v -0.025000 0.010000 0.005000
v -0.025000 0.010000 0.010000
v -0.025000 0.010000 0.015000
v -0.025000 0.010000 0.020000
v -0.025000 0.010000 0.025000
v -0.025000 0.015000 -0.025000
v -0.025000 0.015000 -0.020000
v -0.025000 0.015000 -0.015000
v -0.025000 0.015000 -0.010000
v -0.025000 0.015000 -0.005000
v -0.025000 0.015000 0.000000
v -0.025000 0.015000 0.005000
v -0.025000 0.015000 0.010000
v -0.025000 0.015000 0.015000
v -0.025000 0.015000 0.020000
v -0.025000 0.015000 0.025000
v -0.025000 0.020000 -0.025000
v -0.025000 0.020000 -0.020000
v -0.025000 0.020000 -0.015000
v -0.025000 0.020000 -0.010000
v -0.025000 0.020000 -0.005000
v -0.025000 0.020000 0.000000
v -0.025000 0.020000 0.005000
v -0.025000 0.020000 0.010000
v -0.025000 0.020000 0.015000
v -0.025000 0.020000 0.020000
v -0.025000 0.020000 0.025000
v -0.025000 0.025000 -0.025000
v -0.025000 0.025000 -0.020000
v -0.025000 0.025000 -0.015000
v -0.025000 0.025000 -0.010000
v -0.025000 0.025000 -0.005000
v -0.025000 0.025000 0.000000
v -0.025000 0.025000 0.005000
v -0.025000 0.025000 0.010000
v -0.025000 0.025000 0.015000
v -0.025000 0.025000 0.020000
v -0.025000 0.025000 0.025000
v 0.025000 -0.025000 -0.025000
v 0.025000 -0.025000 -0.020000
v 0.025000 -0.025000 -0.015000
v 0.025000 -0.025000 -0.010000
v 0.025000 -0.025000 -0.005000
v 0.025000 -0.025000 0.000000
v 0.025000 -0.025000 0.005000
v 0.025000 -0.025000 0.010000
v 0.025000 -0.025000 0.015000
v 0.025000 -0.025000 0.020000
v 0.025000 -0.025000 0.025000
v 0.025000 -0.020000 -0.025000
v 0.025000 -0.020000 -0.020000
v 0.025000 -0.020000 -0.015000
v 0.025000 -0.020000 -0.010000
v 0.025000 -0.020000 -0.005000
v 0.025000 -0.020000 0.000000
v 0.025000 -0.020000 0.005000
v 0.025000 -0.020000 0.010000
v 0.025000 -0.020000 0.015000
v 0.025000 -0.020000 0.020000
v 0.025000 -0.020000 0.025000
v 0.025000 -0.015000 -0.025000
v 0.025000 -0.015000 -0.020000
v 0.025000 -0.015000 -0.015000
v 0.025000 -0.015000 -0.010000
v 0.025000 -0.015000 -0.005000
v 0.025000 -0.015000 0.000000
v 0.025000 -0.015000 0.005000
v 0.025000 -0.015000 0.010000
v 0.025000 -0.015000 0.015000
v 0.025000 -0.015000 0.020000
v 0.025000 -0.015000 0.025000
v 0.025000 -0.010000 -0.025000
v 0.025000 -0.010000 -0.020000
v 0.025000 -0.010000 -0.015000
v 0.025000 -0.010000 -0.010000
v 0.025000 -0.010000 -0.005000
v 0.025000 -0.010000 0.000000
v 0.025000 -0.010000 0.005000
v 0.025000 -0.010000 0.010000
v 0.025000 -0.010000 0.015000
v 0.025000 -0.010000 0.020000
v 0.025000 -0.010000 0.025000
v 0.025000 -0.005000 -0.025000
v 0.025000 -0.005000 -0.020000
v 0.025000 -0.005000 -0.015000
v 0.025000 -0.005000 -0.010000
v 0.025000 -0.005000 -0.005000
v 0.025000 -0.005000 0.000000
v 0.025000 -0.005000 0.005000
v 0.025000 -0.005000 0.010000
v 0.025000 -0.005000 0.015000
v 0.025000 -0.005000 0.020000
v 0.025000 -0.005000 0.025000
v 0.025000 0.000000 -0.025000
v 0.025000 0.000000 -0.020000
v 0.025000 0.000000 -0.015000
v 0.025000 0.000000 -0.010000
v 0.025000 0.000000 -0.005000
v 0.025000 0.000000 0.000000
v 0.025000 0.000000 0.005000
v 0.025000 0.000000 0.010000
v 0.025000 0.000000 0.015000
v 0.025000 0.000000 0.020000
v 0.025000 0.000000 0.025000
v 0.025000 0.005000 -0.025000
v 0.025000 0.005000 -0.020000
v 0.025000 0.005000 -0.015000
v 0.025000 0.005000 -0.010000
v 0.025000 0.005000 -0.005000
v 0.025000 0.005000 0.000000
v 0.025000 0.005000 0.005000
v 0.025000 0.005000 0.010000
v 0.025000 0.005000 0.015000
v 0.025000 0.005000 0.020000
v 0.025000 0.005000 0.025000
v 0.025000 0.010000 -0.025000
v 0.025000 0.010000 -0.020000
v 0.025000 0.010000 -0.015000
v 0.025000 0.010000 -0.010000
v 0.025000 0.010000 -0.005000
v 0.025000 0.010000 0.000000
v 0.025000 0.010000 0.005000
v 0.025000 0.010000 0.010000
v 0.025000 0.010000 0.015000
v 0.025000 0.010000 0.020000
v 0.025000 0.010000 0.025000
v 0.025000 0.015000 -0.025000
v 0.025000 0.015000 -0.020000
v 0.025000 0.015000 -0.015000
v 0.025000 0.015000 -0.010000
v 0.025000 0.015000 -0.005000
v 0.025000 0.015000 0.000000
v 0.025000 0.015000 0.005000
v 0.025000 0.015000 0.010000
v 0.025000 0.015000 0.015000
v 0.025000 0.015000 0.020000
v 0.025000 0.015000 0.025000
v 0.025000 0.020000 -0.025000
v 0.025000 0.020000 -0.020000
v 0.025000 0.020000 -0.015000
v 0.025000 0.020000 -0.010000
v 0.025000 0.020000 -0.005000
v 0.025000 0.020000 0.000000
v 0.025000 0.020000 0.005000
v 0.025000 0.020000 0.010000
v 0.025000 0.020000 0.015000
v 0.025000 0.020000 0.020000
v 0.025000 0.020000 0.025000
v 0.025000 0.025000 -0.025000
v 0.025000 0.025000 -0.020000
v 0.025000 0.025000 -0.015000
v 0.025000 0.025000 -0.010000
v 0.025000 0.025000 -0.005000
v 0.025000 0.025000 0.000000
v 0.025000 0.025000 0.005000
v 0.025000 0.025000 0.010000
v 0.025000 0.025000 0.015000
v 0.025000 0.025000 0.020000
v 0.025000 0.025000 0.025000

f 1 13 12
f 1 2 13
f 2 14 13
f 2 3 14
f 3 15 14
f 3 4 15
f 4 16 15
f 4 5 16
f 5 17 16
f 5 6 17
f 6 18 17
f 6 7 18
f 7 19 18
f 7 8 19
f 8 20 19
f 8 9 20
f 9 21 20
f 9 10 21
f 10 22 21
f 10 11 22
f 12 24 23
f 12 13 24
f 13 25 24
f 13 14 25
f 14 26 25
f 14 15 26
f 15 27 26
f 15 16 27
f 16 28 27
f 16 17 28
f 17 29 28
f 17 18 29
f 18 30 29
f 18 19 30
f 19 31 30
f 19 20 31
f 20 32 31
f 20 21 32
f 21 33 32
f 21 22 33
f 23 35 34
f 23 24 35
f 24 36 35
f 24 25 36
f 25 37 36
f 25 26 37
f 26 38 37
f 26 27 38
f 27 39 38
f 27 28 39
f 28 40 39
f 28 29 40
f 29 41 40
f 29 30 41
f 30 42 41
f 30 31 42
f 31 43 42
f 31 32 43
f 32 44 43
f 32 33 44
f 34 46 45
f 34 35 46
f 35 47 46
f 35 36 47
f 36 48 47
f 36 37 48
f 37 49 48
f 37 38 49
f 38 50 49
f 38 39 50
f 39 51 50
f 39 40 51
f 40 52 51
f 40 41 52
f 41 53 52
f 41 42 53
f 42 54 53
f 42 43 54
f 43 55 54
f 43 44 55
f 45 57 56
f 45 46 57
f 46 58 57
f 46 47 58
f 47 59 58
f 47 48 59
f 48 60 59
f 48 49 60
f 49 61 60
f 49 50 61
f 50 62 61
f 50 51 62
f 51 63 62
f 51 52 63
f 52 64 63
f 52 53 64
f 53 65 64
f 53 54 65
f 54 66 65
f 54 55 66
f 56 68 67
f 56 57 68
f 57 69 68
f 57 58 69
f 58 70 69
f 58 59 70
f 59 71 70
f 59 60 71
f 60 72 71
f 60 61 72
f 61 73 72
f 61 62 73
f 62 74 73
f 62 63 74
f 63 75 74
f 63 64 75
f 64 76 75
f 64 65 76
f 65 77 76
f 65 66 77
f 67 79 78
f 67 68 79
f 68 80 79
f 68 69 80
f 69 81 80
f 69 70 81
f 70 82 81
f 70 71 82
f 71 83 82
f 71 72 83
f 72 84 83
f 72 73 84
f 73 85 84
f 73 74 85
f 74 86 85
f 74 75 86
f 75 87 86
f 75 76 87
f 76 88 87
f 76 77 88
f 78 90 89
f 78 79 90
f 79 91 90
f 79 80 91
f 80 92 91
f 80 81 92
f 81 93 92
f 81 82 93
f 82 94 93
f 82 83 94
f 83 95 94
f 83 84 95
f 84 96 95
f 84 85 96
f 85 97 96
f 85 86 97
f 86 98 97
f 86 87 98
f 87 99 98
f 87 88 99
f 89 101 100
f 89 90 101
f 90 102 101
f 90 91 102
f 91 103 102
f 91 92 103
f 92 104 103
f 92 93 104
f 93 105 104
f 93 94 105
f 94 106 105
f 94 95 106
f 95 107 106
f 95 96 107
f 96 108 107
f 96 97 108
f 97 109 108
f 97 98 109
f 98 110 109
f 98 99 110
f 100 112 111
f 100 101 112
f 101 113 112
f 101 102 113
f 102 114 113
f 102 103 114
f 103 115 114
f 103 104 115
f 104 116 115
f 104 105 116
f 105 117 116
f 105 106 117
f 106 118 117
f 106 107 118
f 107 119 118
f 107 108 119
f 108 120 119
f 108 109 120
f 109 121 120
f 109 110 121
f 122 133 134
f 122 134 123
f 123 134 135
f 123 135 124
f 124 135 136
f 124 136 125
f 125 136 137
f 125 137 126
f 126 137 138
f 126 138 127
f 127 138 139
f 127 139 128
f 128 139 140
f 128 140 129
f 129 140 141
f 129 141 130
f 130 141 142
f 130 142 131
f 131 142 143
f 131 143 132
f 133 144 145
f 133 145 134
f 134 145 146
f 134 146 135
f 135 146 147
f 135 147 136
f 136 147 148
f 136 148 137
f 137 148 149
f 137 149 138
f 138 149 150
f 138 150 139
f 139 150 151
f 139 151 140
f 140 151 152
f 140 152 141
f 141 152 153
f 141 153 142
f 142 153 154
f 142 154 143
f 144 155 156
f 144 156 145
f 145 156 157
f 145 157 146
f 146 157 158
f 146 158 147
f 147 158 159
f 147 159 148
f 148 159 160
f 148 160 149
f 149 160 161
f 149 161 150
f 150 161 162
f 150 162 151
f 151 162 163
f 151 163 152
f 152 163 164
f 152 164 153
f 153 164 165
f 153 165 154
f 155 166 167
f 155 167 156
f 156 167 168
f 156 168 157
f 157 168 169
f 157 169 158
f 158 169 170
f 158 170 159
f 159 170 171
f 159 171 160
f 160 171 172
f 160 172 161
f 161 172 173
f 161 173 162
f 162 173 174
f 162 174 163
f 163 174 175
f 163 175 164
f 164 175 176
f 164 176 165
f 166 177 178
f 166 178 167
f 167 178 179
f 167 179 168
f 168 179 180
f 168 180 169
f 169 180 181
f 169 181 170
f 170 181 182
f 170 182 171
f 171 182 183
f 171 183 172
f 172 183 184
f 172 184 173
f 173 184 185
f 173 185 174
f 174 185 186
f 174 186 175
f 175 186 187
f 175 187 176
f 177 188 189
f 177 189 178
f 178 189 190
f 178 190 179
f 179 190 191
f 179 191 180
f 180 191 192
f 180 192 181
f 181 192 193
f 181 193 182
f 182 193 194
f 182 194 183
f 183 194 195
f 183 195 184
f 184 195 196
f 184 196 185
f 185 196 197
f 185 197 186
f 186 197 198
f 186 198 187
f 188 199 200
f 188 200 189
f 189 200 201
f 189 201 190
f 190 201 202
f 190 202 191
f 191 202 203
f 191 203 192
f 192 203 204
f 192 204 193
f 193 204 205
f 193 205 194
f 194 205 206
f 194 206 195
f 195 206 207
f 195 207 196
f 196 207 208
f 196 208 197
f 197 208 209
f 197 209 198
f 199 210 211
f 199 211 200
f 200 211 212
f 200 212 201
f 201 212 213
f 201 213 202
f 202 213 214
f 202 214 203
f 203 214 215
f 203 215 204
f 204 215 216
f 204 216 205
f 205 216 217
f 205 217 206
f 206 217 218
f 206 218 207
f 207 218 219
f 207 219 208
f 208 219 220
f 208 220 209
f 210 221 222
f 210 222 211
f 211 222 223
f 211 223 212
f 212 223 224
f 212 224 213
f 213 224 225
f 213 225 214
f 214 225 226
f 214 226 215
f 215 226 227
f 215 227 216
f 216 227 228
f 216 228 217
f 217 228 229
f 217 229 218
f 218 229 230
f 218 230 219
f 219 230 231
f 219 231 220
f 221 232 233
f 221 233 222
f 222 233 234
f 222 234 223
f 223 234 235
f 223 235 224
f 224 235 236
f 224 236 225
f 225 236 237
f 225 237 226
f 226 237 238
f 226 238 227
f 227 238 239
f 227 239 228
f 228 239 240
f 228 240 229
f 229 240 241
f 229 241 230
f 230 241 242
f 230 242 231
f 243 254 255
f 243 255 244
f 244 255 256
f 244 256 245
f 245 256 257
f 245 257 246
f 246 257 258
f 246 258 247
f 247 258 259
f 247 259 248
f 248 259 260
f 248 260 249
f 249 260 261
f 249 261 250
f 250 261 262
f 250 262 251
f 251 262 263
f 251 263 252
f 252 263 264
f 252 264 253
f 254 265 266
f 254 266 255
f 255 266 267
f 255 267 256
f 256 267 268
f 256 268 257
f 257 268 269
f 257 269 258
f 258 269 270
f 258 270 259
f 259 270 271
f 259 271 260
f 260 271 272
f 260 272 261
f 261 272 273
f 261 273 262
f 262 273 274
f 262 274 263
f 263 274 275
f 263 275 264
f 265 276 277
f 265 277 266
f 266 277 278
f 266 278 267
f 267 278 279
f 267 279 268
f 268 279 280
f 268 280 269
f 269 280 281
f 269 281 270
f 270 281 282
f 270 282 271
f 271 282 283
f 271 283 272
f 272 283 284
f 272 284 273
f 273 284 285
f 273 285 274
f 274 285 286
f 274 286 275
f 276 287 288
f 276 288 277
f 277 288 289
f 277 289 278
f 278 289 290
f 278 290 279
f 279 290 291
f 279 291 280
f 280 291 292
f 280 292 281
f 281 292 293
f 281 293 282
f 282 293 294
f 282 294 283
f 283 294 295
f 283 295 284
f 284 295 296
f 284 296 285
f 285 296 297
f 285 297 286
f 287 298 299
f 287 299 288
f 288 299 300
f 288 300 289
f 289 300 301
f 289 301 290
f 290 301 302
f 290 302 291
f 291 302 303
f 291 303 292
f 292 303 304
f 292 304 293
f 293 304 305
f 293 305 294
f 294 305 306
f 294 306 295
f 295 306 307
f 295 307 296
f 296 307 308
f 296 308 297
f 298 309 310
f 298 310 299
f 299 310 311
f 299 311 300
f 300 311 312
f 300 312 301
f 301 312 313
f 301 313 302
f 302 313 314
f 302 314 303
f 303 314 315
f 303 315 304
f 304 315 316
f 304 316 305
f 305 316 317
f 305 317 306
f 306 317 318
f 306 318 307
f 307 318 319
f 307 319 308
f 309 320 321
f 309 321 310
f 310 321 322
f 310 322 311
f 311 322 323
f 311 323 312
f 312 323 324
f 312 324 313
f 313 324 325
f 313 325 314
f 314 325 326
f 314 326 315
f 315 326 327
f 315 327 316
f 316 327 328
f 316 328 317
f 317 328 329
f 317 329 318
f 318 329 330
f 318 330 319
f 320 331 332
f 320 332 321
f 321 332 333
f 321 333 322
f 322 333 334
f 322 334 323
f 323 334 335
f 323 335 324
f 324 335 336
f 324 336 325
f 325 336 337
f 325 337 326
f 326 337 338
f 326 338 327
f 327 338 339
f 327 339 328
f 328 339 340
f 328 340 329
f 329 340 341
f 329 341 330
f 331 342 343
f 331 343 332
f 332 343 344
f 332 344 333
f 333 344 345
f 333 345 334
f 334 345 346
f 334 346 335
f 335 346 347
f 335 347 336
f 336 347 348
f 336 348 337
f 337 348 349
f 337 349 338
f 338 349 350
f 338 350 339
f 339 350 351
f 339 351 340
f 340 351 352
f 340 352 341
f 342 353 354
f 342 354 343
f 343 354 355
f 343 355 344
f 344 355 356
f 344 356 345
f 345 356 357
f 345 357 346
f 346 357 358
f 346 358 347
f 347 358 359
f 347 359 348
f 348 359 360
f 348 360 349
f 349 360 361
f 349 361 350
f 350 361 362
f 350 362 351
f 351 362 363
f 351 363 352
f 364 376 375
f 364 365 376
f 365 377 376
f 365 366 377
f 366 378 377
f 366 367 378
f 367 379 378
f 367 368 379
f 368 380 379
f 368 369 380
f 369 381 380
f 369 370 381
f 370 382 381
f 370 371 382
f 371 383 382
f 371 372 383
f 372 384 383
f 372 373 384
f 373 385 384
f 373 374 385
f 375 387 386
f 375 376 387
f 376 388 387
f 376 377 388
f 377 389 388
f 377 378 389
f 378 390 389
f 378 379 390
f 379 391 390
f 379 380 391
f 380 392 391
f 380 381 392
f 381 393 392
f 381 382 393
f 382 394 393
f 382 383 394
f 383 395 394
f 383 384 395
f 384 396 395
f 384 385 396
f 386 398 397
f 386 387 398
f 387 399 398
f 387 388 399
f 388 400 399
f 388 389 400
f 389 401 400
f 389 390 401
f 390 402 401
f 390 391 402
f 391 403 402
f 391 392 403
f 392 404 403
f 392 393 404
f 393 405 404
f 393 394 405
f 394 406 405
f 394 395 406
f 395 407 406
f 395 396 407
f 397 409 408
f 397 398 409
f 398 410 409
f 398 399 410
f 399 411 410
f 399 400 411
f 400 412 411
f 400 401 412
f 401 413 412
f 401 402 413
f 402 414 413
f 402 403 414
f 403 415 414
f 403 404 415
f 404 416 415
f 404 405 416
f 405 417 416
f 405 406 417
f 406 418 417
f 406 407 418
f 408 420 419
f 408 409 420
f 409 421 420
f 409 410 421
f 410 422 421
f 410 411 422
f 411 423 422
f 411 412 423
f 412 424 423
f 412 413 424
f 413 425 424
f 413 414 425
f 414 426 425
f 414 415 426
f 415 427 426
f 415 416 427
f 416 428 427
f 416 417 428
f 417 429 428
f 417 418 429
f 419 431 430
f 419 420 431
f 420 432 431
f 420 421 432
f 421 433 432
f 421 422 433
f 422 434 433
f 422 423 434
f 423 435 434
f 423 424 435
f 424 436 435
f 424 425 436
f 425 437 436
f 425 426 437
f 426 438 437
f 426 427 438
f 427 439 438
f 427 428 439
f 428 440 439
f 428 429 440
f 430 442 441
f 430 431 442
f 431 443 442
f 431 432 443
f 432 444 443
f 432 433 444
f 433 445 444
f 433 434 445
f 434 446 445
f 434 435 446
f 435 447 446
f 435 436 447
f 436 448 447
f 436 437 448
f 437 449 448
f 437 438 449
f 438 450 449
f 438 439 450
f 439 451 450
f 439 440 451
f 441 453 452
f 441 442 453
f 442 454 453
f 442 443 454
f 443 455 454
f 443 444 455
f 444 456 455
f 444 445 456
f 445 457 456
f 445 446 457
f 446 458 457
f 446 447 458
f 447 459 458
f 447 448 459
f 448 460 459
f 448 449 460
f 449 461 460
f 449 450 461
f 450 462 461
f 450 451 462
f 452 464 463
f 452 453 464
f 453 465 464
f 453 454 465
f 454 466 465
f 454 455 466
f 455 467 466
f 455 456 467
f 456 468 467
f 456 457 468
f 457 469 468
f 457 458 469
f 458 470 469
f 458 459 470
f 459 471 470
f 459 460 471
f 460 472 471
f 460 461 472
f 461 473 472
f 461 462 473
f 463 475 474
f 463 464 475
f 464 476 475
f 464 465 476
f 465 477 476
f 465 466 477
f 466 478 477
f 466 467 478
f 467 479 478
f 467 468 479
f 468 480 479
f 468 469 480
f 469 481 480
f 469 470 481
f 470 482 481
f 470 471 482
f 471 483 482
f 471 472 483
f 472 484 483
f 472 473 484
f 485 497 496
f 485 486 497
f 486 498 497
f 486 487 498
f 487 499 498
f 487 488 499
f 488 500 499
f 488 489 500
f 489 501 500
f 489 490 501
f 490 502 501
f 490 491 502
f 491 503 502
f 491 492 503
f 492 504 503
f 492 493 504
f 493 505 504
f 493 494 505
f 494 506 505
f 494 495 506
f 496 508 507
f 496 497 508
f 497 509 508
f 497 498 509
f 498 510 509
f 498 499 510
f 499 511 510
f 499 500 511
f 500 512 511
f 500 501 512
f 501 513 512
f 501 502 513
f 502 514 513
f 502 503 514
f 503 515 514
f 503 504 515
f 504 516 515
f 504 505 516
f 505 517 516
f 505 506 517
f 507 519 518
f 507 508 519
f 508 520 519
f 508 509 520
f 509 521 520
f 509 510 521
f 510 522 521
f 510 511 522
f 511 523 522
f 511 512 523
f 512 524 523
f 512 513 524
f 513 525 524
f 513 514 525
f 514 526 525
f 514 515 526
f 515 527 526
f 515 516 527
f 516 528 527
f 516 517 528
f 518 530 529
f 518 519 530
f 519 531 530
f 519 520 531
f 520 532 531
f 520 521 532
f 521 533 532
f 521 522 533
f 522 534 533
f 522 523 534
f 523 535 534
f 523 524 535
f 524 536 535
f 524 525 536
f 525 537 536
f 525 526 537
f 526 538 537
f 526 527 538
f 527 539 538
f 527 528 539
f 529 541 540
f 529 530 541
f 530 542 541
f 530 531 542
f 531 543 542
f 531 532 543
f 532 544 543
f 532 533 544
f 533 545 544
f 533 534 545
f 534 546 545
f 534 535 546
f 535 547 546
f 535 536 547
f 536 548 547
f 536 537 548
f 537 549 548
f 537 538 549
f 538 550 549
f 538 539 550
f 540 552 551
f 540 541 552
f 541 553 552
f 541 542 553
f 542 554 553
f 542 543 554
f 543 555 554
f 543 544 555
f 544 556 555
f 544 545 556
f 545 557 556
f 545 546 557
f 546 558 557
f 546 547 558
f 547 559 558
f 547 548 559
f 548 560 559
f 548 549 560
f 549 561 560
f 549 550 561
f 551 563 562
f 551 552 563
f 552 564 563
f 552 553 564
f 553 565 564
f 553 554 565
f 554 566 565
f 554 555 566
f 555 567 566
f 555 556 567
f 556 568 567
f 556 557 568
f 557 569 568
f 557 558 569
f 558 570 569
f 558 559 570
f 559 571 570
f 559 560 571
f 560 572 571
f 560 561 572
f 562 574 573
f 562 563 574
f 563 575 574
f 563 564 575
f 564 576 575
f 564 565 576
f 565 577 576
f 565 566 577
f 566 578 577
f 566 567 578
f 567 579 578
f 567 568 579
f 568 580 579
f 568 569 580
f 569 581 580
f 569 570 581
f 570 582 581
f 570 571 582
f 571 583 582
f 571 572 583
f 573 585 584
f 573 574 585
f 574 586 585
f 574 575 586
f 575 587 586
f 575 576 587
f 576 588 587
f 576 577 588
f 577 589 588
f 577 578 589
f 578 590 589
f 578 579 590
f 579 591 590
f 579 580 591
f 580 592 591
f 580 581 592
f 581 593 592
f 581 582 593
f 582 594 593
f 582 583 594
f 584 596 595
f 584 585 596
f 585 597 596
f 585 586 597
f 586 598 597
f 586 587 598
f 587 599 598
f 587 588 599
f 588 600 599
f 588 589 600
f 589 601 600
f 589 590 601
f 590 602 601
f 590 591 602
f 591 603 602
f 591 592 603
f 592 604 603
f 592 593 604
f 593 605 604
f 593 594 605
f 606 617 618
f 606 618 607
f 607 618 619
f 607 619 608
f 608 619 620
f 608 620 609
f 609 620 621
f 609 621 610
f 610 621 622
f 610 622 611
f 611 622 623
f 611 623 612
f 612 623 624
f 612 624 613
f 613 624 625
f 613 625 614
f 614 625 626
f 614 626 615
f 615 626 627
f 615 627 616
f 617 628 629
f 617 629 618
f 618 629 630
f 618 630 619
f 619 630 631
f 619 631 620
f 620 631 632
f 620 632 621
f 621 632 633
f 621 633 622
f 622 633 634
f 622 634 623
f 623 634 635
f 623 635 624
f 624 635 636
f 624 636 625
f 625 636 637
f 625 637 626
f 626 637 638
f 626 638 627
f 628 639 640
f 628 640 629
f 629 640 641
f 629 641 630
f 630 641 642
f 630 642 631
f 631 642 643
f 631 643 632
f 632 643 644
f 632 644 633
f 633 644 645
f 633 645 634
f 634 645 646
f 634 646 635
f 635 646 647
f 635 647 636
f 636 647 648
f 636 648 637
f 637 648 649
f 637 649 638
f 639 650 651
f 639 651 640
f 640 651 652
f 640 652 641
f 641 652 653
f 641 653 642
f 642 653 654
f 642 654 643
f 643 654 655
f 643 655 644
f 644 655 656
f 644 656 645
f 645 656 657
f 645 657 646
f 646 657 658
f 646 658 647
f 647 658 659
f 647 659 648
f 648 659 660
f 648 660 649
f 650 661 662
f 650 662 651
f 651 662 663
f 651 663 652
f 652 663 664
f 652 664 653
f 653 664 665
f 653 665 654
f 654 665 666
f 654 666 655
f 655 666 667
f 655 667 656
f 656 667 668
f 656 668 657
f 657 668 669
f 657 669 658
f 658 669 670
f 658 670 659
f 659 670 671
f 659 671 660
f 661 672 673
f 661 673 662
f 662 673 674
f 662 674 663
f 663 674 675
f 663 675 664
f 664 675 676
f 664 676 665
f 665 676 677
f 665 677 666
f 666 677 678
f 666 678 667
f 667 678 679
f 667 679 668
f 668 679 680
f 668 680 669
f 669 680 681
f 669 681 670
f 670 681 682
f 670 682 671
f 672 683 684
f 672 684 673
f 673 684 685
f 673 685 674
f 674 685 686
f 674 686 675
f 675 686 687
f 675 687 676
f 676 687 688
f 676 688 677
f 677 688 689
f 677 689 678
f 678 689 690
f 678 690 679
f 679 690 691
f 679 691 680
f 680 691 692
f 680 692 681
f 681 692 693
f 681 693 682
f 683 694 695
f 683 695 684
f 684 695 696
f 684 696 685
f 685 696 697
f 685 697 686
f 686 697 698
f 686 698 687
f 687 698 699
f 687 699 688
f 688 699 700
f 688 700 689
f 689 700 701
f 689 701 690
f 690 701 702
f 690 702 691
f 691 702 703
f 691 703 692
f 692 703 704
f 692 704 693
f 694 705 706
f 694 706 695
f 695 706 707
f 695 707 696
f 696 707 708
f 696 708 697
f 697 708 709
f 697 709 698
f 698 709 710
f 698 710 699
f 699 710 711
f 699 711 700
f 700 711 712
f 700 712 701
f 701 712 713
f 701 713 702
f 702 713 714
f 702 714 703
f 703 714 715
f 703 715 704
f 705 716 717
f 705 717 706
f 706 717 718
f 706 718 707
f 707 718 719
f 707 719 708
f 708 719 720
f 708 720 709
f 709 720 721
f 709 721 710
f 710 721 722
f 710 722 711
f 711 722 723
f 711 723 712
f 712 723 724
f 712 724 713
f 713 724 725
f 713 725 714
f 714 725 726
f 714 726 715
